<?xml version="1.0" encoding="UTF-8" standalone="no"?>
<svg
   xmlns:dc="http://purl.org/dc/elements/1.1/"
   xmlns:cc="http://creativecommons.org/ns#"
   xmlns:rdf="http://www.w3.org/1999/02/22-rdf-syntax-ns#"
   xmlns:svg="http://www.w3.org/2000/svg"
   xmlns="http://www.w3.org/2000/svg"
   xmlns:sodipodi="http://sodipodi.sourceforge.net/DTD/sodipodi-0.dtd"
   xmlns:inkscape="http://www.inkscape.org/namespaces/inkscape"
   width="1439.6708"
   height="766.06952"
   version="1.1"
   id="svg104"
   sodipodi:docname="1.svg"
   inkscape:version="0.92.3 (2405546, 2018-03-11)">
  <metadata
     id="metadata108">
    <rdf:RDF>
      <cc:Work
         rdf:about="">
        <dc:format>image/svg+xml</dc:format>
        <dc:type
           rdf:resource="http://purl.org/dc/dcmitype/StillImage" />
        <dc:title>Red Car - Top View</dc:title>
      </cc:Work>
    </rdf:RDF>
  </metadata>
  <sodipodi:namedview
     pagecolor="#ffffff"
     bordercolor="#666666"
     borderopacity="1"
     objecttolerance="10"
     gridtolerance="10"
     guidetolerance="10"
     inkscape:pageopacity="0"
     inkscape:pageshadow="2"
     inkscape:window-width="1920"
     inkscape:window-height="954"
     id="namedview106"
     showgrid="false"
     inkscape:zoom="0.83674303"
     inkscape:cx="676.6132"
     inkscape:cy="380.32533"
     inkscape:window-x="0"
     inkscape:window-y="27"
     inkscape:window-maximized="1"
     inkscape:current-layer="g3890"
     fit-margin-top="0"
     fit-margin-left="0"
     fit-margin-right="0"
     fit-margin-bottom="0" />
  <title
     id="title2">Red Car - Top View</title>
  <defs
     id="defs64" />
  <g
     id="g102"
     transform="translate(-252.34256,-169.12828)">
    <title
       id="title66">Layer 1</title>
    <g
       externalResourcesRequired="false"
       id="layer1"
       display="inline"
       style="display:inline">
      <g
         id="g3890">
        <path
           d="m 1090.2589,169.12865 c -2.2958,0.0149 -7.1849,0.50755 -9.8443,1.55449 l -5.3265,2.48721 13.1736,59.4346 -189.94502,0.46638 c -118.64844,0.27426 -253.42364,-19.07486 -354.49383,-15.75248 -101.07032,3.32237 -231.5102,46.42841 -231.5102,46.42841 l -20.8302,6.2699 c -29.29757,8.78204 -39.13989,161.44995 -39.13989,276.54956 0,1.84558 0.0406,3.73596 0.0476,5.59625 -0.007,1.86035 -0.0476,3.75073 -0.0476,5.59625 0,115.09973 9.84232,267.76752 39.13989,276.54966 l 20.8302,6.2699 c 0,0 130.43988,43.106 231.5102,46.4284 101.07019,3.3223 235.84539,-16.0269 354.49383,-15.7525 l 189.94502,0.4663 -13.1736,59.4346 5.3265,2.4872 c 2.6594,1.047 7.5484,1.5397 9.8443,1.5545 1.2916,0.01 2.671,-0.1232 4.09,-0.4146 0.4731,-0.097 0.949,-0.234 1.4269,-0.3626 0.4634,-0.125 0.9627,-0.2601 1.4267,-0.4146 0.9564,-0.3195 1.9228,-0.6998 2.8535,-1.14 2.7721,-1.3132 5.3786,-3.155 7.2761,-5.4407 0.015,-0.018 0.033,-0.035 0.048,-0.052 0.951,-1.155 1.693,-2.409 2.2353,-3.7826 l 18.4999,-51.8175 167.3075,0.4146 c 36.3728,19.8024 69.2615,17.7734 111.9979,17.7734 202.7859,0 285.5404,-143.57371 284.5845,-333.91148 0,-1.29364 -0.029,-2.59601 -0.047,-3.88635 0.018,-1.29022 0.047,-2.59259 0.047,-3.88629 0.9559,-190.33765 -81.7986,-333.91138 -284.5843,-333.91138 -42.7366,0 -75.6253,-2.02899 -111.9981,17.77338 l -167.3075,0.41455 -18.4999,-51.81745 c -0.5423,-1.37365 -1.2843,-2.62761 -2.2353,-3.78268 -0.015,-0.0172 -0.032,-0.0341 -0.048,-0.0517 -1.8975,-2.28574 -4.504,-4.12752 -7.2761,-5.44085 -0.9307,-0.44014 -1.897,-0.82046 -2.8535,-1.13996 -0.464,-0.15447 -0.9632,-0.28956 -1.4267,-0.41462 -0.4779,-0.12863 -0.9538,-0.26582 -1.4269,-0.36268 -1.4189,-0.29116 -2.7984,-0.42282 -4.09,-0.41452 v -2.8e-4 z"
           id="path2853"
           inkscape:connector-curvature="0"
           style="fill:#00ff00" />
        <path
           d="m 769.04486,766.49878 c -50.77533,0 -99.38788,2.9848 -144.28955,8.39453 39.05121,80.77496 149.11932,50.18463 312.83356,52.28369 75.61543,0.96954 136.27183,3.11621 184.95113,3.93817 -71.7702,-38.69177 -203.2084,-64.61639 -353.49514,-64.61639 z"
           id="path3643"
           inkscape:connector-curvature="0"
           style="opacity:1;fill:#191919;fill-opacity:1;stroke:#191919;stroke-opacity:1;stroke-width:5;stroke-miterlimit:4;stroke-dasharray:none" />
        <path
           d="m 1663.4399,721.10507 v 0 c -48.9016,-1.69301 -97.9509,44.13997 -68.1023,103.22021 v 0 l 8.2883,-7.73289 c 24.1812,-24.34247 42.7747,-54.20119 56.6278,-87.76656 z"
           id="path3707"
           stroke-miterlimit="4"
           inkscape:connector-curvature="0"
           style="fill:#191919;fill-opacity:1;fill-rule:nonzero;stroke:#191919;stroke-width:5;stroke-miterlimit:4;stroke-dasharray:none"
           sodipodi:nodetypes="ccccccc" />
        <path
           d="m 556.22437,355.51508 -118.32325,20.67517 c -41.31906,7.21981 -74.4906,80.87292 -77.61392,173.84741 3.12332,92.97449 36.29486,166.62756 77.61392,173.84747 l 118.32325,20.67517 c 20.23431,0 36.52404,-17.7489 36.52404,-39.79577 V 395.31091 c 0,-22.04693 -16.28973,-39.79583 -36.52417,-39.79583 z"
           id="rect2864"
           stroke-miterlimit="4"
           inkscape:connector-curvature="0"
           style="opacity:1;fill:#191919;fill-opacity:1;stroke:#191919;stroke-width:5;stroke-miterlimit:4" />
        <path
           d="m 1212.8512,298.77499 c -4.5187,0 -8.9686,0.55085 -13.3635,1.60639 -0.016,-0.0166 -0.032,-0.0348 -0.047,-0.0517 l -97.1603,20.41605 c -26.979,10.9516 -48.6987,23.66516 -48.6987,53.06103 V 726.2688 c 0,29.39587 21.7197,42.10943 48.6987,53.06109 l 97.1603,20.41596 c 0.016,-0.0168 0.032,-0.035 0.047,-0.0517 4.3949,1.05567 8.8448,1.60645 13.3635,1.60645 69.0854,0 125.0931,-95.11634 125.2665,-251.26276 -0.1734,-156.14642 -56.1811,-251.26263 -125.2665,-251.26263 z"
           id="path3703"
           stroke-miterlimit="4"
           inkscape:connector-curvature="0"
           style="opacity:1;fill:#191919;fill-opacity:1;stroke:#191919;stroke-width:5;stroke-miterlimit:4;stroke-dashoffset:0" />
        <path
           d="m 769.04486,333.5762 c -50.77533,0 -99.38788,-2.98471 -144.28955,-8.39447 39.05121,-80.7749 149.11932,-50.18466 312.83356,-52.28372 75.61543,-0.96957 136.27183,-3.11615 184.95113,-3.93814 -71.7702,38.69171 -203.2084,64.61633 -353.49514,64.61633 z"
           id="path4157"
           inkscape:connector-curvature="0"
           style="opacity:1;fill:#191919;fill-opacity:1;stroke-width:5;stroke-miterlimit:4;stroke-dasharray:none;stroke:#191919;stroke-opacity:1" />
        <path
           d="m 1663.4397,383.22158 v 0 c -48.9016,1.69301 -97.9509,-44.13997 -68.1023,-103.22021 v 0 l 8.2883,7.73289 c 24.1812,24.34247 42.7747,54.20119 56.6278,87.76656 z"
           id="path3707-5"
           stroke-miterlimit="4"
           inkscape:connector-curvature="0"
           style="display:inline;fill:#191919;fill-opacity:1;fill-rule:nonzero;stroke:#191919;stroke-width:5;stroke-miterlimit:4;stroke-dasharray:none"
           sodipodi:nodetypes="ccccccc" />
      </g>
    </g>
  </g>
</svg>
